<svg xmlns="http://www.w3.org/2000/svg" width="40" height="40" viewBox="0 0 40 40"><path fill="#FFF" d="M29.61 14.06c-.71.31-1.47.52-2.26.62.81-.49 1.44-1.26 1.73-2.17a7.8 7.8 0 0 1-2.5.95 3.953 3.953 0 0 0-2.88-1.24c-2.18 0-3.94 1.76-3.94 3.93 0 .31.03.61.1.89-3.28-.16-6.18-1.73-8.13-4.1-.34.58-.53 1.25-.53 1.97 0 1.36.7 2.57 1.75 3.27a4.02 4.02 0 0 1-1.79-.49v.05c0 1.9 1.36 3.49 3.16 3.85a3.955 3.955 0 0 1-1.78.07c.5 1.56 1.96 2.7 3.68 2.73a7.955 7.955 0 0 1-4.9 1.68 7.3 7.3 0 0 1-.94-.06c1.75 1.12 3.82 1.77 6.04 1.77 7.25 0 11.22-5.99 11.22-11.18 0-.17 0-.34-.01-.51a7.8 7.8 0 0 0 1.98-2.03z"/></svg>