<svg xmlns="http://www.w3.org/2000/svg" width="40" height="40" viewBox="0 0 40 40"><path fill="#FFF" d="M20.57 12.05c1.97.03 3.94.05 5.91.09.8.02 1.6.09 2.4.17.66.06 1.13.44 1.48.96.49.72.7 1.55.85 2.39.36 2.01.3 4.03.26 6.06-.03 1.31-.16 2.61-.54 3.86-.18.59-.45 1.15-.9 1.59-.32.31-.69.52-1.14.54-1.41.08-2.82.2-4.23.23-2.76.04-5.52.06-8.29.04-1.68-.02-3.36-.13-5.04-.22-.84-.04-1.41-.52-1.83-1.21-.44-.74-.61-1.57-.74-2.4-.36-2.34-.3-4.7-.12-7.05.06-.83.24-1.66.41-2.48.06-.31.22-.6.35-.9.43-1.02 1.25-1.46 2.32-1.49l8.85-.24v.06zm-2.87 3.77v8.4c2.2-1.4 4.35-2.78 6.56-4.19-2.21-1.42-4.37-2.81-6.56-4.21z"/></svg>